<svg width="161" height="40" viewBox="0 0 161 40" fill="none" xmlns="http://www.w3.org/2000/svg">
<g clip-path="url(#clip0_28_7455)">
<path d="M64.647 19.2849L55.6645 8.74967C55.275 8.29272 54.6994 8.0304 54.0983 8.0304C52.9638 8.0304 52.041 8.95276 52.041 10.0867V24.0152H55.1057V12.7522L64.0713 23.2705C64.4607 23.719 65.0195 23.9898 65.6121 23.9898C66.755 24.0067 67.6947 23.0759 67.6947 21.9335V8.0304H64.647V19.2934V19.2849Z" fill="white"/>
<path d="M103.007 19.6996L99.4423 9.5536C99.1206 8.63124 98.2486 8.02197 97.275 8.02197C96.3014 8.02197 95.4294 8.6397 95.1077 9.5536L91.5435 19.6996L87.5983 8.02197H84.3643L89.2322 22.4497C89.5455 23.3806 90.426 24.0152 91.408 24.0152H91.6366C92.6102 24.0152 93.4822 23.3975 93.8039 22.4836L97.275 12.6253L100.746 22.4836C101.068 23.4059 101.94 24.0152 102.913 24.0152H103.125C104.107 24.0152 104.988 23.389 105.301 22.4582L110.186 8.03043H106.952L103.007 19.708V19.6996Z" fill="white"/>
<path d="M124.917 10.9075V8.02197H111.947V19.3272C111.947 21.9082 114.046 24.0067 116.629 24.0067H124.917V21.1212H116.781C115.807 21.1212 115.011 20.3342 115.011 19.3526V17.4656H124.9V14.5547H115.011V10.8991H124.917V10.9075Z" fill="white"/>
<path d="M83.3909 10.9075V8.02197H70.4209V19.3272C70.4209 21.9082 72.5205 24.0067 75.1026 24.0067H83.3909V21.1212H75.255C74.2814 21.1212 73.4856 20.3342 73.4856 19.3526V17.4656H83.374V14.5547H73.4856V10.8991H83.3909V10.9075Z" fill="white"/>
<path d="M134.746 8.03043H127.245V24.0152H134.746C139.165 24.0152 142.746 20.4358 142.746 16.0186C142.746 11.6014 139.165 8.02197 134.746 8.02197V8.03043ZM130.31 10.9075H134.568C137.387 10.9075 139.682 13.1923 139.682 16.0186C139.682 18.8364 137.396 21.1297 134.568 21.1297H130.31V10.9075Z" fill="white"/>
<path d="M157.105 8.0304V16.3655C157.105 18.9972 154.971 21.1381 152.33 21.1381C149.697 21.1381 147.555 19.0056 147.555 16.3655V8.0304H144.49V16.1963C144.49 20.5203 147.995 24.0236 152.321 24.0236C156.647 24.0236 160.152 20.5203 160.152 16.1963V8.0304H157.105Z" fill="white"/>
<path d="M111.938 29.7524H114.207C115.706 29.7524 116.349 30.6156 116.349 31.7833C116.349 33.1457 115.435 33.7888 114.08 33.7888H113.005V36.0228H111.938V29.7609V29.7524ZM113.979 32.8242C114.851 32.8242 115.249 32.3841 115.249 31.7664C115.249 31.1064 114.825 30.7087 114.055 30.7087H113.005V32.8242H113.979Z" fill="#00B6F1"/>
<path d="M117.848 29.7524H118.914V35.0666H121.818V36.0228H117.848V29.7609V29.7524Z" fill="#00B6F1"/>
<path d="M125.654 29.7524C125.34 29.7524 125.061 29.9471 124.951 30.2432L122.792 36.0228H123.91L125.645 31.0387H125.662L127.406 36.0228H128.515L126.348 30.2432C126.238 29.9471 125.958 29.7524 125.645 29.7524H125.654Z" fill="#00B6F1"/>
<path d="M130.488 30.7087H128.71V29.7524H133.349V30.7087H131.546V36.0228H130.479V30.7087H130.488Z" fill="#00B6F1"/>
<path d="M134.754 29.7524H138.852V30.7087H135.821V32.5788H138.852V33.5434H135.821V36.0228H134.754V29.7609V29.7524Z" fill="#00B6F1"/>
<path d="M139.978 32.9173C139.978 31.0726 141.265 29.7186 143.144 29.7186C145.024 29.7186 146.302 31.0049 146.302 32.9173C146.302 34.8297 144.948 36.1159 143.144 36.1159C141.341 36.1159 139.978 34.7535 139.978 32.9173ZM145.193 32.9173C145.193 31.631 144.304 30.7087 143.144 30.7087C141.917 30.7087 141.079 31.6903 141.079 32.9173C141.079 34.1443 141.917 35.1259 143.144 35.1259C144.304 35.1259 145.193 34.2035 145.193 32.9173Z" fill="#00B6F1"/>
<path d="M143.135 33.7719C143.607 33.7719 143.99 33.3893 143.99 32.9173C143.99 32.4453 143.607 32.0626 143.135 32.0626C142.663 32.0626 142.281 32.4453 142.281 32.9173C142.281 33.3893 142.663 33.7719 143.135 33.7719Z" fill="#F7941D"/>
<path d="M151.136 36.0143L149.638 33.7804H148.8V36.0143H147.733V29.7524H150.044C151.534 29.7524 152.186 30.6156 152.186 31.7833C152.186 32.8157 151.653 33.4334 150.806 33.6704V33.6957L152.415 36.0143H151.136ZM148.8 32.8242H149.816C150.671 32.8242 151.085 32.3841 151.085 31.7664C151.085 31.1064 150.654 30.7087 149.883 30.7087H148.8V32.8242Z" fill="#00B6F1"/>
<path d="M160.153 30.3532V36.0143H159.086V31.8172H159.077L157.528 34.5081C157.418 34.6943 157.223 34.8127 157.003 34.8127C156.783 34.8127 156.588 34.6943 156.478 34.5081L154.937 31.8172H154.929V36.0143H153.862V30.3532C153.862 30.0232 154.133 29.7524 154.463 29.7524H154.573C154.794 29.7524 154.997 29.8709 155.098 30.0655L156.995 33.5011H157.012L158.908 30.0655C159.018 29.8709 159.213 29.7524 159.433 29.7524H159.543C159.873 29.7524 160.144 30.0232 160.144 30.3532H160.153Z" fill="#00B6F1"/>
<path d="M0 26.6723L13.3425 13.3446L6.8321 6.8373C4.30922 4.31562 0 6.10111 0 9.66362V26.6723Z" fill="url(#paint0_linear_28_7455)"/>
<path d="M26.6765 26.6724L20.0053 20.0043L14.8749 25.1323C13.8928 26.1139 12.5552 26.6724 11.1583 26.6724H0V30.5733C0 35.7775 4.22456 40 9.43118 40C11.9371 40 14.333 39.01 16.1024 37.2414L26.6765 26.6724Z" fill="url(#paint1_linear_28_7455)"/>
<mask id="mask0_28_7455" style="mask-type:luminance" maskUnits="userSpaceOnUse" x="0" y="20" width="27" height="20">
<path d="M26.6765 26.6724L20.0053 20.0043L14.8749 25.1323C13.8928 26.1139 12.5552 26.6724 11.1583 26.6724H0V30.5733C0 35.7775 4.22456 40 9.43118 40C11.9371 40 14.333 39.01 16.1024 37.2414L26.6765 26.6724Z" fill="white"/>
</mask>
<g mask="url(#mask0_28_7455)">
<path d="M14.8749 25.1322C2.68374 37.3175 0 34.0173 0 30.1163V26.6723L14.8749 25.1322Z" fill="url(#paint2_linear_28_7455)"/>
</g>
<path d="M40.0188 13.3276L26.6763 26.6553L33.1867 33.1626C35.7095 35.6843 40.0188 33.8988 40.0188 30.3363V13.3276Z" fill="url(#paint3_linear_28_7455)"/>
<path d="M13.3423 13.3277L20.0135 19.9958L25.144 14.8678C26.126 13.8862 27.4637 13.3277 28.8606 13.3277H40.0273V9.4267C40.0273 4.22255 35.8027 0 30.5961 0C28.0901 0 25.6943 0.990057 23.9249 2.75862L13.3508 13.3277H13.3423Z" fill="url(#paint4_linear_28_7455)"/>
<mask id="mask1_28_7455" style="mask-type:luminance" maskUnits="userSpaceOnUse" x="13" y="0" width="28" height="20">
<path d="M13.3423 13.3277L20.0135 19.9958L25.144 14.8678C26.126 13.8862 27.4637 13.3277 28.8606 13.3277H40.0273V9.4267C40.0273 4.22255 35.8027 0 30.5961 0C28.0901 0 25.6943 0.990057 23.9249 2.75862L13.3508 13.3277H13.3423Z" fill="white"/>
</mask>
<g mask="url(#mask1_28_7455)">
<path d="M25.144 14.8678C37.3352 2.68246 40.0189 5.98265 40.0189 9.88364V13.3277L25.144 14.8678Z" fill="url(#paint5_linear_28_7455)"/>
</g>
</g>
<defs>
<linearGradient id="paint0_linear_28_7455" x1="-11.2175" y1="28.5424" x2="13.7455" y2="3.56755" gradientUnits="userSpaceOnUse">
<stop stop-color="#034EA2"/>
<stop offset="0.5" stop-color="#00B5F1"/>
<stop offset="1" stop-color="#B9E5FB"/>
</linearGradient>
<linearGradient id="paint1_linear_28_7455" x1="27.1506" y1="12.8708" x2="3.88006" y2="36.1524" gradientUnits="userSpaceOnUse">
<stop stop-color="#00AEEF"/>
<stop offset="1" stop-color="#B1E3FA"/>
</linearGradient>
<linearGradient id="paint2_linear_28_7455" x1="-3.20863" y1="36.5475" x2="21.7543" y2="11.5726" gradientUnits="userSpaceOnUse">
<stop stop-color="#034EA2"/>
<stop offset="0.5" stop-color="#00B5F1"/>
<stop offset="1" stop-color="#B9E5FB"/>
</linearGradient>
<linearGradient id="paint3_linear_28_7455" x1="43.9724" y1="18.7179" x2="16.5808" y2="46.1226" gradientUnits="userSpaceOnUse">
<stop stop-color="#EF4136"/>
<stop offset="0.5" stop-color="#F7941D"/>
<stop offset="1" stop-color="#F9ED32"/>
</linearGradient>
<linearGradient id="paint4_linear_28_7455" x1="2.64966" y1="37.3514" x2="36.2862" y2="3.69883" gradientUnits="userSpaceOnUse">
<stop stop-color="#F15A29"/>
<stop offset="1" stop-color="#FBB040"/>
</linearGradient>
<linearGradient id="paint5_linear_28_7455" x1="36.9965" y1="9.68901" x2="13.0913" y2="33.5971" gradientUnits="userSpaceOnUse">
<stop stop-color="#EF4136"/>
<stop offset="0.5" stop-color="#F7941D"/>
<stop offset="1" stop-color="#F9ED32"/>
</linearGradient>
<clipPath id="clip0_28_7455">
<rect width="160.076" height="40" fill="white"/>
</clipPath>
</defs>
</svg>
